<svg xmlns="http://www.w3.org/2000/svg" viewBox="0 0 24 24" width="512" height="512"><path d="M12 4.5C12 2.02 9.98 0 7.5 0S3 2.02 3 4.5v2C3 8.98 5.02 11 7.5 11S12 8.98 12 6.5zm-3 2C9 7.33 8.33 8 7.5 8S6 7.33 6 6.5v-2C6 3.67 6.67 3 7.5 3S9 3.67 9 4.5zm6.5 6.5c-2.48 0-4.5 2.02-4.5 4.5v2c0 2.48 2.02 4.5 4.5 4.5s4.5-2.02 4.5-4.5v-2c0-2.48-2.02-4.5-4.5-4.5m1.5 6.5c0 .83-.67 1.5-1.5 1.5s-1.5-.67-1.5-1.5v-2c0-.83.67-1.5 1.5-1.5s1.5.67 1.5 1.5zM14.44 4.56a1.49 1.49 0 0 1 0-2.12l2-2a1.5 1.5 0 0 1 1.63-.33c.56.23.93.78.93 1.39v8c0 .83-.67 1.5-1.5 1.5S16 10.33 16 9.5V4.91c-.53.19-1.14.07-1.56-.35M9 14.5v8c0 .83-.67 1.5-1.5 1.5S6 23.33 6 22.5v-4.59c-.53.19-1.14.07-1.56-.35a1.49 1.49 0 0 1 0-2.12l2-2a1.5 1.5 0 0 1 1.63-.33c.56.23.93.78.93 1.39"/></svg>